<svg width="26" height="24" viewBox="0 0 26 24" fill="none" xmlns="http://www.w3.org/2000/svg">
<path id="Vector" d="M25.8133 22.5396C23.9419 19.3834 21.0579 17.1201 17.6923 16.0472C19.3571 15.0804 20.6505 13.6072 21.374 11.8538C22.0974 10.1004 22.2109 8.16383 21.6969 6.34145C21.183 4.51906 20.0701 2.91164 18.529 1.76604C16.988 0.620441 15.1041 0 13.1667 0C11.2292 0 9.34531 0.620441 7.80429 1.76604C6.26327 2.91164 5.15033 4.51906 4.63639 6.34145C4.12244 8.16383 4.23591 10.1004 4.95937 11.8538C5.68283 13.6072 6.97627 15.0804 8.64106 16.0472C5.27543 17.1189 2.39148 19.3822 0.520041 22.5396C0.451412 22.6488 0.405891 22.7703 0.386164 22.8969C0.366436 23.0235 0.372902 23.1527 0.40518 23.2768C0.437457 23.4009 0.494893 23.5175 0.574097 23.6196C0.653302 23.7218 0.752671 23.8074 0.866342 23.8714C0.980014 23.9355 1.10568 23.9767 1.23594 23.9926C1.36619 24.0085 1.4984 23.9988 1.62474 23.964C1.75109 23.9293 1.86902 23.8702 1.97159 23.7903C2.07415 23.7103 2.15926 23.6112 2.2219 23.4986C4.53693 19.5955 8.62877 17.2652 13.1667 17.2652C17.7046 17.2652 21.7964 19.5955 24.1114 23.4986C24.1741 23.6112 24.2592 23.7103 24.3617 23.7903C24.4643 23.8702 24.5822 23.9293 24.7086 23.964C24.8349 23.9988 24.9671 24.0085 25.0974 23.9926C25.2276 23.9767 25.3533 23.9355 25.467 23.8714C25.5807 23.8074 25.68 23.7218 25.7592 23.6196C25.8384 23.5175 25.8959 23.4009 25.9282 23.2768C25.9604 23.1527 25.9669 23.0235 25.9472 22.8969C25.9274 22.7703 25.8819 22.6488 25.8133 22.5396ZM6.28549 8.63422C6.28549 7.30652 6.68906 6.00863 7.44517 4.90469C8.20129 3.80075 9.27598 2.94033 10.5334 2.43224C11.7907 1.92416 13.1743 1.79122 14.5091 2.05024C15.8439 2.30926 17.07 2.94861 18.0324 3.88743C18.9947 4.82626 19.6501 6.02239 19.9156 7.32458C20.1811 8.62677 20.0449 9.97652 19.524 11.2032C19.0032 12.4298 18.1213 13.4782 16.9896 14.2158C15.858 14.9535 14.5276 15.3472 13.1667 15.3472C11.3423 15.3453 9.59314 14.6374 8.30309 13.3789C7.01304 12.1204 6.28744 10.414 6.28549 8.63422Z" fill="white" fill-opacity="0.7"/>
</svg>
