<svg width="24" height="22" viewBox="0 0 24 22" fill="none" xmlns="http://www.w3.org/2000/svg">
<g id="Layer 1">
<g id="Group">
<path id="Vector" d="M0.257841 9.96646L7.78482 2.43948C8.11208 2.11222 8.68727 2.11222 9.02444 2.43948C9.19303 2.60806 9.28228 2.82624 9.28228 3.05433C9.28228 3.29234 9.19303 3.51051 9.02444 3.66918L2.98501 9.70861H20.2405C20.7265 9.70861 21.1132 10.1053 21.1132 10.5813C21.1132 10.8193 21.024 11.0375 20.8554 11.1962C20.6868 11.3647 20.4686 11.454 20.2405 11.454H2.98501L9.02444 17.4934C9.19303 17.662 9.28228 17.8802 9.28228 18.1083C9.28228 18.3364 9.19303 18.5645 9.02444 18.7231C8.85585 18.8917 8.63768 18.981 8.40959 18.981C8.1815 18.981 7.95341 18.8917 7.79474 18.7231L0.257841 11.2061C0.0892527 11.0474 0 10.8292 0 10.5912C0 10.3532 0.0892527 10.135 0.257841 9.97637V9.96646Z" fill="white"/>
<path id="Vector_2" d="M23.1372 0C23.6132 0 24 0.396679 24 0.88261V20.3C24 20.786 23.6132 21.1826 23.1372 21.1826C22.6612 21.1826 22.2744 20.786 22.2744 20.3V0.88261C22.2744 0.396679 22.6612 0 23.1372 0Z" fill="white"/>
</g>
</g>
</svg>
