<svg width="22" height="24" viewBox="0 0 22 24" fill="none" xmlns="http://www.w3.org/2000/svg">
<g id="Layer 1">
<path id="Vector" d="M21.169 16.4969L19.8084 14.2259C19.3182 13.4156 19.0681 12.4852 19.0681 11.5348V8.30346C19.0681 3.72155 15.3466 0 10.7646 0C6.18274 0 2.46119 3.72155 2.46119 8.29346V11.5248C2.46119 12.4752 2.20108 13.4056 1.72088 14.2159L0.360313 16.4869C-0.109883 17.2772 -0.119887 18.2276 0.330301 19.0279C0.780488 19.8283 1.61083 20.3085 2.53122 20.3085H7.43326C7.43326 20.4085 7.39324 20.5085 7.39324 20.6186C7.39324 22.4894 8.91388 24 10.7747 24C12.6354 24 14.1561 22.4794 14.1561 20.6186C14.1561 20.5186 14.126 20.4185 14.116 20.3085H19.0181C19.9385 20.3085 20.7588 19.8283 21.219 19.0279C21.6692 18.2276 21.6592 17.2772 21.189 16.4869L21.169 16.4969ZM12.2953 20.6286C12.2953 21.479 11.605 22.1692 10.7546 22.1692C9.90429 22.1692 9.214 21.479 9.214 20.6286C9.214 20.5286 9.23401 20.4185 9.25402 20.3185H12.2553C12.2753 20.4185 12.2953 20.5186 12.2953 20.6286ZM19.5883 18.1276C19.5283 18.2276 19.3582 18.4677 18.9981 18.4677H2.52121C2.16106 18.4677 1.99099 18.2276 1.93097 18.1276C1.87094 18.0275 1.7609 17.7474 1.93097 17.4473L3.29153 15.1763C3.95181 14.0759 4.30196 12.8153 4.30196 11.5348V8.30346C4.30196 4.74198 7.20317 1.85077 10.7646 1.85077C14.3261 1.85077 17.2273 4.74198 17.2273 8.30346V11.5348C17.2273 12.8153 17.5775 14.0759 18.2378 15.1763L19.5983 17.4473C19.7784 17.7574 19.6684 18.0275 19.6083 18.1276H19.5883Z" fill="#616161"/>
</g>
</svg>
