<svg width="24" height="14" viewBox="0 0 24 14" fill="none" xmlns="http://www.w3.org/2000/svg">
<path id="Vector" d="M11.7959 3.11111C11.0249 3.11111 10.2712 3.33919 9.6301 3.76651C8.98904 4.19382 8.48939 4.80119 8.19434 5.51179C7.89929 6.22239 7.82209 7.00431 7.9725 7.75869C8.12292 8.51306 8.49419 9.20599 9.03937 9.74986C9.58456 10.2937 10.2792 10.6641 11.0353 10.8142C11.7915 10.9642 12.5753 10.8872 13.2877 10.5929C14 10.2985 14.6088 9.80008 15.0371 9.16055C15.4655 8.52103 15.6941 7.76915 15.6941 7C15.6941 5.9686 15.2834 4.97945 14.5524 4.25014C13.8213 3.52083 12.8297 3.11111 11.7959 3.11111ZM11.7959 9.33333C11.3333 9.33333 10.881 9.19649 10.4964 8.9401C10.1118 8.68371 9.81198 8.31929 9.63495 7.89293C9.45792 7.46657 9.4116 6.99741 9.50185 6.54479C9.5921 6.09217 9.81486 5.67641 10.142 5.35008C10.4691 5.02376 10.8858 4.80153 11.3396 4.7115C11.7933 4.62147 12.2636 4.66768 12.6909 4.84428C13.1183 5.02089 13.4836 5.31995 13.7406 5.70367C13.9976 6.08738 14.1348 6.53851 14.1348 7C14.1348 7.61884 13.8884 8.21233 13.4498 8.64992C13.0111 9.0875 12.4162 9.33333 11.7959 9.33333ZM22.711 0H0.880727C0.67395 0 0.475642 0.0819444 0.329429 0.227806C0.183216 0.373668 0.101074 0.571498 0.101074 0.777778V13.2222C0.101074 13.4285 0.183216 13.6263 0.329429 13.7722C0.475642 13.9181 0.67395 14 0.880727 14H22.711C22.9178 14 23.1161 13.9181 23.2623 13.7722C23.4085 13.6263 23.4907 13.4285 23.4907 13.2222V0.777778C23.4907 0.571498 23.4085 0.373668 23.2623 0.227806C23.1161 0.0819444 22.9178 0 22.711 0ZM18.1939 12.4444H5.39784C5.13608 11.5613 4.65698 10.7575 4.00419 10.1063C3.35141 9.45505 2.54567 8.97711 1.66038 8.71597V5.28403C2.54567 5.02289 3.35141 4.54495 4.00419 3.89373C4.65698 3.24252 5.13608 2.43872 5.39784 1.55556H18.1939C18.4556 2.43872 18.9347 3.24252 19.5875 3.89373C20.2403 4.54495 21.0461 5.02289 21.9313 5.28403V8.71597C21.0461 8.97711 20.2403 9.45505 19.5875 10.1063C18.9347 10.7575 18.4556 11.5613 18.1939 12.4444ZM21.9313 3.63319C20.9962 3.23205 20.2508 2.48846 19.8487 1.55556H21.9313V3.63319ZM3.74303 1.55556C3.34091 2.48846 2.59554 3.23205 1.66038 3.63319V1.55556H3.74303ZM1.66038 10.3668C2.59554 10.768 3.34091 11.5115 3.74303 12.4444H1.66038V10.3668ZM19.8487 12.4444C20.2508 11.5115 20.9962 10.768 21.9313 10.3668V12.4444H19.8487Z" fill="white" fill-opacity="0.7"/>
</svg>
