<svg width="27" height="17" viewBox="0 0 27 17" fill="none" xmlns="http://www.w3.org/2000/svg">
<path id="Vector" d="M22.4628 3.65392C21.2784 2.49149 19.8708 1.57016 18.321 0.943043C16.7713 0.315927 15.1101 -0.0045645 13.4332 4.91109e-05H13.3876C6.36015 0.0235359 0.641602 5.70398 0.641602 12.6527V15.2105C0.641602 15.6851 0.834128 16.1403 1.17683 16.4759C1.51953 16.8115 1.98433 17 2.46898 17H24.3975C24.8822 17 25.347 16.8115 25.6897 16.4759C26.0324 16.1403 26.2249 15.6851 26.2249 15.2105V12.5263C26.2296 10.8771 25.8994 9.24339 25.2535 7.72022C24.6077 6.19706 23.659 4.81484 22.4628 3.65392ZM24.3975 15.2105H12.4864L18.7406 6.78885C18.8833 6.59693 18.9423 6.35738 18.9046 6.12288C18.8669 5.88839 18.7356 5.67816 18.5396 5.53845C18.3436 5.39874 18.099 5.341 17.8596 5.37791C17.6201 5.41483 17.4054 5.54338 17.2627 5.7353L10.2262 15.2105H2.46898V12.6527C2.46898 12.3082 2.48611 11.9682 2.51809 11.6316H5.21005C5.45237 11.6316 5.68477 11.5373 5.85612 11.3695C6.02747 11.2017 6.12373 10.9742 6.12373 10.7369C6.12373 10.4996 6.02747 10.272 5.85612 10.1042C5.68477 9.93639 5.45237 9.84213 5.21005 9.84213H2.84245C4.02111 5.49595 7.86774 2.21004 12.5196 1.82754V4.47372C12.5196 4.71102 12.6158 4.9386 12.7872 5.10639C12.9585 5.27419 13.1909 5.36845 13.4332 5.36845C13.6756 5.36845 13.908 5.27419 14.0793 5.10639C14.2507 4.9386 14.3469 4.71102 14.3469 4.47372V1.82643C16.6136 2.01322 18.7651 2.88478 20.5042 4.32068C22.2432 5.75657 23.4839 7.68591 24.0549 9.84213H21.6564C21.4141 9.84213 21.1817 9.93639 21.0104 10.1042C20.839 10.272 20.7428 10.4996 20.7428 10.7369C20.7428 10.9742 20.839 11.2017 21.0104 11.3695C21.1817 11.5373 21.4141 11.6316 21.6564 11.6316H24.3598C24.3838 11.928 24.3975 12.2255 24.3975 12.5263V15.2105Z" fill="white" fill-opacity="0.7"/>
</svg>
