<svg width="26" height="24" viewBox="0 0 26 24" fill="none" xmlns="http://www.w3.org/2000/svg">
<path id="Vector" d="M13.0377 0C10.6242 0 8.26478 0.703788 6.25797 2.02236C4.25115 3.34094 2.68703 5.21508 1.7634 7.4078C0.83976 9.60051 0.598095 12.0133 1.06896 14.3411C1.53983 16.6689 2.70207 18.807 4.40873 20.4853C6.11538 22.1635 8.2898 23.3064 10.657 23.7694C13.0242 24.2324 15.4779 23.9948 17.7077 23.0865C19.9376 22.1783 21.8435 20.6402 23.1844 18.6668C24.5253 16.6934 25.241 14.3734 25.241 12C25.2376 8.81843 23.9508 5.76814 21.663 3.51843C19.3752 1.26872 16.2732 0.00335979 13.0377 0ZM13.0377 22.1538C10.9955 22.1538 8.99908 21.5583 7.30101 20.4426C5.60293 19.3269 4.27945 17.7411 3.49791 15.8857C2.71637 14.0303 2.51189 11.9887 2.91031 10.0191C3.30873 8.04943 4.29217 6.24019 5.73627 4.82015C7.18036 3.40011 9.02025 2.43305 11.0233 2.04126C13.0263 1.64947 15.1025 1.85055 16.9893 2.61907C18.8761 3.38759 20.4887 4.68903 21.6233 6.35882C22.758 8.02861 23.3636 9.99176 23.3636 12C23.3605 14.692 22.2716 17.2729 20.3358 19.1765C18.4 21.08 15.7754 22.1508 13.0377 22.1538ZM17.7313 14.3077C17.7313 15.1645 17.3851 15.9863 16.769 16.5922C16.1528 17.1981 15.3172 17.5385 14.4458 17.5385H13.9764V18.4615C13.9764 18.7064 13.8775 18.9411 13.7015 19.1143C13.5255 19.2874 13.2867 19.3846 13.0377 19.3846C12.7888 19.3846 12.55 19.2874 12.374 19.1143C12.1979 18.9411 12.099 18.7064 12.099 18.4615V17.5385H10.2216C9.97264 17.5385 9.73387 17.4412 9.55783 17.2681C9.38179 17.095 9.28289 16.8602 9.28289 16.6154C9.28289 16.3706 9.38179 16.1358 9.55783 15.9627C9.73387 15.7896 9.97264 15.6923 10.2216 15.6923H14.4458C14.8192 15.6923 15.1774 15.5464 15.4415 15.2868C15.7055 15.0271 15.8539 14.6749 15.8539 14.3077C15.8539 13.9405 15.7055 13.5883 15.4415 13.3286C15.1774 13.069 14.8192 12.9231 14.4458 12.9231H11.6297C10.7583 12.9231 9.92262 12.5827 9.30647 11.9768C8.69032 11.3709 8.34417 10.5492 8.34417 9.69231C8.34417 8.83545 8.69032 8.01369 9.30647 7.40781C9.92262 6.80192 10.7583 6.46154 11.6297 6.46154H12.099V5.53846C12.099 5.29365 12.1979 5.05886 12.374 4.88575C12.55 4.71264 12.7888 4.61538 13.0377 4.61538C13.2867 4.61538 13.5255 4.71264 13.7015 4.88575C13.8775 5.05886 13.9764 5.29365 13.9764 5.53846V6.46154H15.8539C16.1028 6.46154 16.3416 6.55879 16.5176 6.7319C16.6937 6.90501 16.7926 7.1398 16.7926 7.38461C16.7926 7.62943 16.6937 7.86422 16.5176 8.03733C16.3416 8.21044 16.1028 8.30769 15.8539 8.30769H11.6297C11.2562 8.30769 10.8981 8.45357 10.634 8.71323C10.3699 8.9729 10.2216 9.32508 10.2216 9.69231C10.2216 10.0595 10.3699 10.4117 10.634 10.6714C10.8981 10.931 11.2562 11.0769 11.6297 11.0769H14.4458C15.3172 11.0769 16.1528 11.4173 16.769 12.0232C17.3851 12.6291 17.7313 13.4508 17.7313 14.3077Z" fill="white"/>
</svg>
