<svg width="21" height="20" viewBox="0 0 21 20" fill="none" xmlns="http://www.w3.org/2000/svg">
<path id="Vector" d="M17.5292 2.7375C16.5935 1.87444 15.4804 1.18841 14.2539 0.718666C13.0274 0.248926 11.7114 0.00470923 10.3814 0H10.3041C7.60703 0 5.02042 0.978314 3.1133 2.71972C1.20618 4.46113 0.134766 6.82299 0.134766 9.28571V14.2857C0.134766 14.854 0.382014 15.3991 0.822119 15.8009C1.26222 16.2028 1.85913 16.4286 2.48154 16.4286H4.04605C4.66845 16.4286 5.26537 16.2028 5.70547 15.8009C6.14558 15.3991 6.39282 14.854 6.39282 14.2857V10.7143C6.39282 10.146 6.14558 9.60092 5.70547 9.19906C5.26537 8.79719 4.66845 8.57143 4.04605 8.57143H1.73448C1.88534 7.08208 2.498 5.66286 3.50065 4.48009C4.50329 3.29733 5.85439 2.40003 7.39558 1.89336C8.93676 1.38669 10.6042 1.29166 12.2024 1.61938C13.8006 1.94711 15.2635 2.68402 16.4194 3.74375C17.8323 5.04045 18.7013 6.74916 18.8747 8.57143H16.5622C15.9398 8.57143 15.3429 8.79719 14.9027 9.19906C14.4626 9.60092 14.2154 10.146 14.2154 10.7143V14.2857C14.2154 14.854 14.4626 15.3991 14.9027 15.8009C15.3429 16.2028 15.9398 16.4286 16.5622 16.4286H18.9089C18.9089 16.9969 18.6617 17.5419 18.2216 17.9438C17.7815 18.3457 17.1846 18.5714 16.5622 18.5714H11.0864C10.8789 18.5714 10.6799 18.6467 10.5332 18.7806C10.3865 18.9146 10.3041 19.0963 10.3041 19.2857C10.3041 19.4752 10.3865 19.6568 10.5332 19.7908C10.6799 19.9247 10.8789 20 11.0864 20H16.5622C17.5995 20 18.5944 19.6237 19.3279 18.954C20.0614 18.2842 20.4735 17.3758 20.4735 16.4286V9.28571C20.4785 8.07105 20.2211 6.8674 19.7159 5.74374C19.2107 4.62008 18.4676 3.59849 17.5292 2.7375ZM4.04605 10C4.25352 10 4.45249 10.0753 4.59919 10.2092C4.74589 10.3432 4.82831 10.5248 4.82831 10.7143V14.2857C4.82831 14.4752 4.74589 14.6568 4.59919 14.7908C4.45249 14.9247 4.25352 15 4.04605 15H2.48154C2.27407 15 2.0751 14.9247 1.9284 14.7908C1.7817 14.6568 1.69928 14.4752 1.69928 14.2857V10H4.04605ZM16.5622 15C16.3547 15 16.1557 14.9247 16.009 14.7908C15.8623 14.6568 15.7799 14.4752 15.7799 14.2857V10.7143C15.7799 10.5248 15.8623 10.3432 16.009 10.2092C16.1557 10.0753 16.3547 10 16.5622 10H18.9089V15H16.5622Z" fill="white" fill-opacity="0.7"/>
</svg>
