<svg width="26" height="28" viewBox="0 0 26 28" fill="none" xmlns="http://www.w3.org/2000/svg">
<path id="Vector" d="M20.6278 18.004C19.9169 18.0038 19.2132 18.1374 18.5583 18.397C17.9034 18.6566 17.3107 19.0369 16.8153 19.5153L10.6742 15.8115C11.1572 14.6491 11.1572 13.3589 10.6742 12.1965L16.8153 8.49275C17.7377 9.3794 18.9782 9.91307 20.2961 9.99029C21.614 10.0675 22.9156 9.68278 23.9484 8.91069C24.9812 8.1386 25.6717 7.03416 25.886 5.81149C26.1003 4.58882 25.8232 3.33504 25.1083 2.29322C24.3935 1.2514 23.2918 0.495762 22.0169 0.172815C20.7421 -0.150132 19.3848 -0.0173841 18.2083 0.545323C17.0319 1.10803 16.1199 2.0606 15.6494 3.21837C15.1789 4.37613 15.1832 5.65659 15.6617 6.8115L9.52055 10.5153C8.78104 9.80285 7.83193 9.31356 6.79453 9.10993C5.75714 8.90631 4.6786 8.9976 3.69678 9.37213C2.71497 9.74666 1.87448 10.3874 1.28277 11.2125C0.691058 12.0376 0.375 13.0095 0.375 14.004C0.375 14.9985 0.691058 15.9704 1.28277 16.7955C1.87448 17.6206 2.71497 18.2613 3.69678 18.6359C4.6786 19.0104 5.75714 19.1017 6.79453 18.8981C7.83193 18.6944 8.78104 18.2052 9.52055 17.4928L15.6617 21.1965C15.2503 22.1922 15.1894 23.2853 15.4879 24.3157C15.7865 25.3462 16.4288 26.2599 17.3208 26.9231C18.2128 27.5862 19.3077 27.964 20.445 28.001C21.5824 28.038 22.7025 27.7324 23.6414 27.1289C24.5802 26.5253 25.2885 25.6556 25.6624 24.647C26.0364 23.6384 26.0564 22.544 25.7195 21.524C25.3827 20.5039 24.7066 19.6119 23.7904 18.9785C22.8742 18.3451 21.7659 18.0036 20.6278 18.004ZM20.6278 2.004C21.2602 2.004 21.8783 2.17995 22.4041 2.5096C22.9298 2.83924 23.3396 3.30778 23.5816 3.85595C23.8236 4.40413 23.8869 5.00733 23.7635 5.58927C23.6402 6.17122 23.3357 6.70577 22.8885 7.12532C22.4414 7.54488 21.8717 7.8306 21.2516 7.94636C20.6314 8.06212 19.9886 8.00271 19.4044 7.77564C18.8202 7.54858 18.3208 7.16406 17.9695 6.67071C17.6182 6.17737 17.4307 5.59735 17.4307 5.004C17.4307 4.20835 17.7676 3.44529 18.3671 2.88268C18.9667 2.32007 19.7799 2.004 20.6278 2.004ZM5.708 17.004C5.07567 17.004 4.45754 16.8281 3.93178 16.4984C3.40602 16.1688 2.99624 15.7002 2.75425 15.1521C2.51227 14.6039 2.44896 14.0007 2.57232 13.4187C2.69568 12.8368 3.00018 12.3022 3.4473 11.8827C3.89442 11.4631 4.46409 11.1774 5.08427 11.0616C5.70445 10.9459 6.34728 11.0053 6.93148 11.2324C7.51567 11.4594 8.01499 11.8439 8.3663 12.3373C8.7176 12.8306 8.90511 13.4107 8.90511 14.004C8.90511 14.7997 8.56827 15.5627 7.96869 16.1253C7.36912 16.6879 6.55592 17.004 5.708 17.004ZM20.6278 26.004C19.9955 26.004 19.3774 25.8281 18.8516 25.4984C18.3259 25.1688 17.9161 24.7002 17.6741 24.1521C17.4321 23.6039 17.3688 23.0007 17.4922 22.4187C17.6155 21.8368 17.92 21.3022 18.3671 20.8827C18.8143 20.4631 19.3839 20.1774 20.0041 20.0616C20.6243 19.9459 21.2671 20.0053 21.8513 20.2324C22.4355 20.4594 22.9348 20.8439 23.2861 21.3373C23.6374 21.8306 23.8249 22.4107 23.8249 23.004C23.8249 23.7997 23.4881 24.5627 22.8885 25.1253C22.289 25.6879 21.4758 26.004 20.6278 26.004Z" fill="white" fill-opacity="0.7"/>
</svg>
