<svg width="26" height="24" viewBox="0 0 26 24" fill="none" xmlns="http://www.w3.org/2000/svg">
<path id="Vector" d="M12.1827 12.9231V6.46154C12.1827 6.21673 12.2864 5.98194 12.4709 5.80883C12.6554 5.63572 12.9057 5.53847 13.1667 5.53847C13.4276 5.53847 13.6779 5.63572 13.8624 5.80883C14.047 5.98194 14.1506 6.21673 14.1506 6.46154V12.9231C14.1506 13.1679 14.047 13.4027 13.8624 13.5758C13.6779 13.7489 13.4276 13.8462 13.1667 13.8462C12.9057 13.8462 12.6554 13.7489 12.4709 13.5758C12.2864 13.4027 12.1827 13.1679 12.1827 12.9231ZM25.9583 7.79423V16.2058C25.9591 16.4483 25.9086 16.6886 25.8095 16.9126C25.7105 17.1366 25.565 17.34 25.3815 17.5108L19.041 23.4588C18.8589 23.631 18.6422 23.7675 18.4034 23.8604C18.1645 23.9533 17.9084 24.0008 17.6499 24H8.68344C8.42491 24.0008 8.16879 23.9533 7.92998 23.8604C7.69117 23.7675 7.47442 23.631 7.29234 23.4588L0.951865 17.5108C0.768328 17.34 0.622816 17.1366 0.523786 16.9126C0.424756 16.6886 0.374184 16.4483 0.37501 16.2058V7.79423C0.374184 7.5517 0.424756 7.31144 0.523786 7.08741C0.622816 6.86338 0.768328 6.66004 0.951865 6.48923L7.29234 0.541163C7.47442 0.368986 7.69117 0.232479 7.92998 0.139578C8.16879 0.0466765 8.42491 -0.000765506 8.68344 9.34028e-06H17.6499C17.9084 -0.000765506 18.1645 0.0466765 18.4034 0.139578C18.6422 0.232479 18.8589 0.368986 19.041 0.541163L25.3815 6.48923C25.565 6.66004 25.7105 6.86338 25.8095 7.08741C25.9086 7.31144 25.9591 7.5517 25.9583 7.79423ZM23.9904 7.79423L17.6499 1.84616H8.68344L2.34296 7.79423V16.2058L8.68344 22.1538H17.6499L23.9904 16.2058V7.79423ZM13.1667 15.6923C12.8747 15.6923 12.5894 15.7735 12.3467 15.9257C12.1039 16.0778 11.9148 16.294 11.8031 16.5471C11.6913 16.8001 11.6621 17.0785 11.7191 17.347C11.776 17.6156 11.9166 17.8623 12.123 18.056C12.3294 18.2496 12.5924 18.3815 12.8787 18.4349C13.165 18.4884 13.4618 18.4609 13.7315 18.3561C14.0012 18.2513 14.2317 18.0739 14.3939 17.8462C14.5561 17.6185 14.6426 17.3508 14.6426 17.0769C14.6426 16.7097 14.4871 16.3575 14.2103 16.0978C13.9335 15.8382 13.5581 15.6923 13.1667 15.6923Z" fill="white" fill-opacity="0.7"/>
</svg>
