<svg width="26" height="24" viewBox="0 0 26 24" fill="none" xmlns="http://www.w3.org/2000/svg">
<path id="Vector" d="M17.4235 7.65483C17.515 7.74055 17.5876 7.84236 17.6371 7.95441C17.6866 8.06647 17.7121 8.18658 17.7121 8.30788C17.7121 8.42919 17.6866 8.5493 17.6371 8.66136C17.5876 8.77341 17.515 8.87521 17.4235 8.96094L9.55197 16.3453C9.46055 16.4311 9.35202 16.4991 9.23257 16.5455C9.11313 16.5919 8.98511 16.6158 8.85583 16.6158C8.72654 16.6158 8.59852 16.5919 8.47908 16.5455C8.35964 16.4991 8.25111 16.4311 8.15969 16.3453C8.06827 16.2595 7.99575 16.1577 7.94628 16.0457C7.8968 15.9336 7.87134 15.8135 7.87134 15.6923C7.87134 15.571 7.8968 15.4509 7.94628 15.3388C7.99575 15.2268 8.06827 15.125 8.15969 15.0392L16.0312 7.65483C16.1226 7.56901 16.2311 7.50092 16.3506 7.45447C16.47 7.40802 16.5981 7.38411 16.7274 7.38411C16.8567 7.38411 16.9847 7.40802 17.1042 7.45447C17.2236 7.50092 17.3321 7.56901 17.4235 7.65483ZM23.5658 1.89271C22.9262 1.29265 22.1669 0.816655 21.3312 0.491902C20.4955 0.167149 19.5998 0 18.6952 0C17.7907 0 16.895 0.167149 16.0593 0.491902C15.2236 0.816655 14.4643 1.29265 13.8247 1.89271L10.1276 5.3599C9.94294 5.5331 9.83922 5.76802 9.83922 6.01296C9.83922 6.2579 9.94294 6.49281 10.1276 6.66601C10.3122 6.83921 10.5626 6.93652 10.8237 6.93652C11.0848 6.93652 11.3352 6.83921 11.5198 6.66601L15.217 3.20459C16.143 2.35498 17.3888 1.88223 18.684 1.88892C19.9793 1.89561 21.2194 2.38121 22.1354 3.24033C23.0513 4.09945 23.5692 5.26278 23.5766 6.47785C23.5839 7.69292 23.0802 8.86169 22.1747 9.73053L18.4763 13.1989C18.2917 13.3719 18.1879 13.6067 18.1878 13.8515C18.1877 14.0964 18.2912 14.3312 18.4757 14.5044C18.6602 14.6776 18.9104 14.775 19.1714 14.7751C19.4324 14.7752 19.6827 14.678 19.8674 14.505L23.5658 11.0309C24.2054 10.4309 24.7128 9.71855 25.059 8.93458C25.4052 8.15062 25.5833 7.31036 25.5833 6.46179C25.5833 5.61322 25.4052 4.77296 25.059 3.989C24.7128 3.20503 24.2054 2.49271 23.5658 1.89271ZM14.0633 17.333L10.3662 20.8013C9.9112 21.2377 9.36846 21.5851 8.76938 21.8234C8.17031 22.0617 7.52679 22.1861 6.8761 22.1894C6.22541 22.1928 5.58048 22.075 4.97864 21.843C4.3768 21.6109 3.83002 21.2691 3.36994 20.8375C2.90987 20.4058 2.54565 19.8928 2.29838 19.3281C2.0511 18.7635 1.92568 18.1585 1.92938 17.5481C1.93308 16.9376 2.06582 16.334 2.31992 15.772C2.57402 15.2101 2.94444 14.701 3.40971 14.2742L7.10564 10.807C7.29027 10.6338 7.39399 10.3989 7.39399 10.154C7.39399 9.90903 7.29027 9.67412 7.10564 9.50092C6.92101 9.32772 6.6706 9.23042 6.4095 9.23042C6.1484 9.23042 5.89799 9.32772 5.71336 9.50092L2.01743 12.9693C0.725692 14.1811 0 15.8246 0 17.5383C0 19.2521 0.725692 20.8956 2.01743 22.1074C3.30917 23.3192 5.06115 24 6.88794 24C8.71474 24 10.4667 23.3192 11.7585 22.1074L15.4556 18.6379C15.6401 18.4647 15.7436 18.2299 15.7435 17.985C15.7434 17.7402 15.6396 17.5054 15.455 17.3324C15.2704 17.1593 15.02 17.0622 14.759 17.0623C14.4981 17.0624 14.2478 17.1598 14.0633 17.333Z" fill="white"/>
</svg>
