<svg width="18" height="18" viewBox="0 0 18 18" fill="none" xmlns="http://www.w3.org/2000/svg">
<g id="logout-1 1">
<path id="Vector" d="M11.4289 16.7025H11.3314C8.00145 16.7025 6.39641 15.39 6.11891 12.45C6.08891 12.1425 6.31391 11.865 6.62891 11.835C6.92891 11.805 7.21391 12.0375 7.24391 12.345C7.46141 14.7 8.57145 15.5775 11.339 15.5775H11.4365C14.4889 15.5775 15.569 14.4975 15.569 11.445V6.55499C15.569 3.50249 14.4889 2.42249 11.4365 2.42249H11.339C8.55645 2.42249 7.44641 3.31499 7.24391 5.71499C7.20641 6.02249 6.94391 6.25499 6.62891 6.22499C6.31391 6.20249 6.08891 5.92499 6.11141 5.61749C6.36641 2.63249 7.97895 1.29749 11.3314 1.29749H11.4289C15.1115 1.29749 16.6865 2.87249 16.6865 6.55499V11.445C16.6865 15.1275 15.1115 16.7025 11.4289 16.7025Z" fill="white"/>
<path id="Vector_2" d="M11.2493 9.5625H2.71436C2.40686 9.5625 2.15186 9.3075 2.15186 9C2.15186 8.6925 2.40686 8.4375 2.71436 8.4375H11.2493C11.5568 8.4375 11.8118 8.6925 11.8118 9C11.8118 9.3075 11.5568 9.5625 11.2493 9.5625Z" fill="white"/>
<path id="Vector_3" d="M4.38709 12.0749C4.24459 12.0749 4.10209 12.0224 3.98959 11.9099L1.47709 9.39735C1.25959 9.17985 1.25959 8.81985 1.47709 8.60235L3.98959 6.08988C4.20709 5.87238 4.56709 5.87238 4.78459 6.08988C5.00209 6.30738 5.00209 6.66738 4.78459 6.88488L2.66959 8.99985L4.78459 11.1149C5.00209 11.3324 5.00209 11.6924 4.78459 11.9099C4.67959 12.0224 4.52959 12.0749 4.38709 12.0749Z" fill="white"/>
</g>
</svg>
