<svg width="25" height="18" viewBox="0 0 25 18" fill="none" xmlns="http://www.w3.org/2000/svg">
<path id="Vector" d="M23.9156 0H1.38647C1.1375 0 0.898739 0.0948213 0.722696 0.263604C0.546654 0.432387 0.447754 0.661305 0.447754 0.9V16.2C0.447754 16.6774 0.645553 17.1352 0.997639 17.4728C1.34972 17.8104 1.82725 18 2.32518 18H22.9768C23.4748 18 23.9523 17.8104 24.3044 17.4728C24.6565 17.1352 24.8543 16.6774 24.8543 16.2V0.9C24.8543 0.661305 24.7554 0.432387 24.5793 0.263604C24.4033 0.0948213 24.1645 0 23.9156 0ZM12.651 9.57937L3.80013 1.8H21.5019L12.651 9.57937ZM9.21415 9L2.32518 15.0536V2.94638L9.21415 9ZM10.6034 10.2206L12.0115 11.4637C12.1847 11.6162 12.4112 11.7007 12.6463 11.7007C12.8814 11.7007 13.1079 11.6162 13.2811 11.4637L14.6892 10.2206L21.4949 16.2H3.80013L10.6034 10.2206ZM16.0879 9L22.9768 2.94525V15.0548L16.0879 9Z" fill="white"/>
</svg>
