<svg width="26" height="24" viewBox="0 0 26 24" fill="none" xmlns="http://www.w3.org/2000/svg">
<path id="Vector" d="M20.1439 6.26087V22.9565C20.1439 23.2333 20.0214 23.4987 19.8033 23.6944C19.5853 23.8901 19.2895 24 18.9811 24C18.6726 24 18.3769 23.8901 18.1588 23.6944C17.9407 23.4987 17.8182 23.2333 17.8182 22.9565V6.26087C17.8182 5.98412 17.9407 5.71871 18.1588 5.52302C18.3769 5.32733 18.6726 5.21739 18.9811 5.21739C19.2895 5.21739 19.5853 5.32733 19.8033 5.52302C20.0214 5.71871 20.1439 5.98412 20.1439 6.26087ZM24.7955 0C24.487 0 24.1913 0.109938 23.9732 0.305628C23.7551 0.501318 23.6326 0.766731 23.6326 1.04348V22.9565C23.6326 23.2333 23.7551 23.4987 23.9732 23.6944C24.1913 23.8901 24.487 24 24.7955 24C25.1039 24 25.3997 23.8901 25.6177 23.6944C25.8358 23.4987 25.9583 23.2333 25.9583 22.9565V1.04348C25.9583 0.766731 25.8358 0.501318 25.6177 0.305628C25.3997 0.109938 25.1039 0 24.7955 0ZM13.1667 10.4348C12.8583 10.4348 12.5625 10.5447 12.3444 10.7404C12.1263 10.9361 12.0038 11.2015 12.0038 11.4783V22.9565C12.0038 23.2333 12.1263 23.4987 12.3444 23.6944C12.5625 23.8901 12.8583 24 13.1667 24C13.4751 24 13.7709 23.8901 13.9889 23.6944C14.207 23.4987 14.3295 23.2333 14.3295 22.9565V11.4783C14.3295 11.2015 14.207 10.9361 13.9889 10.7404C13.7709 10.5447 13.4751 10.4348 13.1667 10.4348ZM7.35227 15.6522C7.04386 15.6522 6.74808 15.7621 6.52999 15.9578C6.31191 16.1535 6.18939 16.4189 6.18939 16.6957V22.9565C6.18939 23.2333 6.31191 23.4987 6.52999 23.6944C6.74808 23.8901 7.04386 24 7.35227 24C7.66069 24 7.95647 23.8901 8.17455 23.6944C8.39263 23.4987 8.51515 23.2333 8.51515 22.9565V16.6957C8.51515 16.4189 8.39263 16.1535 8.17455 15.9578C7.95647 15.7621 7.66069 15.6522 7.35227 15.6522ZM1.53788 20.8696C1.22946 20.8696 0.933682 20.9795 0.7156 21.1752C0.497517 21.3709 0.375 21.6363 0.375 21.913V22.9565C0.375 23.2333 0.497517 23.4987 0.7156 23.6944C0.933682 23.8901 1.22946 24 1.53788 24C1.84629 24 2.14208 23.8901 2.36016 23.6944C2.57824 23.4987 2.70076 23.2333 2.70076 22.9565V21.913C2.70076 21.6363 2.57824 21.3709 2.36016 21.1752C2.14208 20.9795 1.84629 20.8696 1.53788 20.8696Z" fill="white" fill-opacity="0.7"/>
</svg>
