<svg width="26" height="24" viewBox="0 0 26 24" fill="none" xmlns="http://www.w3.org/2000/svg">
<path id="Vector" d="M25.9583 22.9091C25.9583 23.1984 25.8547 23.4759 25.6701 23.6805C25.4856 23.8851 25.2353 24 24.9744 24H1.35897C1.09801 24 0.84773 23.8851 0.663199 23.6805C0.478668 23.4759 0.375 23.1984 0.375 22.9091V1.09091C0.375 0.801582 0.478668 0.524105 0.663199 0.31952C0.84773 0.114935 1.09801 0 1.35897 0C1.61994 0 1.87022 0.114935 2.05475 0.31952C2.23928 0.524105 2.34295 0.801582 2.34295 1.09091V15.9123L8.53461 9.04636C8.62599 8.94493 8.73451 8.86447 8.85397 8.80957C8.97342 8.75467 9.10146 8.72641 9.23077 8.72641C9.36008 8.72641 9.48812 8.75467 9.60757 8.80957C9.72703 8.86447 9.83555 8.94493 9.92693 9.04636L13.1667 12.6395L19.6474 5.45455H17.1026C16.8416 5.45455 16.5913 5.33961 16.4068 5.13503C16.2223 4.93044 16.1186 4.65296 16.1186 4.36364C16.1186 4.07431 16.2223 3.79683 16.4068 3.59225C16.5913 3.38766 16.8416 3.27273 17.1026 3.27273H22.0224C22.2834 3.27273 22.5337 3.38766 22.7182 3.59225C22.9027 3.79683 23.0064 4.07431 23.0064 4.36364V9.81818C23.0064 10.1075 22.9027 10.385 22.7182 10.5896C22.5337 10.7942 22.2834 10.9091 22.0224 10.9091C21.7615 10.9091 21.5112 10.7942 21.3267 10.5896C21.1421 10.385 21.0385 10.1075 21.0385 9.81818V6.99682L13.8628 14.9536C13.7714 15.0551 13.6629 15.1355 13.5435 15.1904C13.424 15.2453 13.296 15.2736 13.1667 15.2736C13.0374 15.2736 12.9093 15.2453 12.7899 15.1904C12.6704 15.1355 12.5619 15.0551 12.4705 14.9536L9.23077 11.3605L2.34295 18.9968V21.8182H24.9744C25.2353 21.8182 25.4856 21.9331 25.6701 22.1377C25.8547 22.3423 25.9583 22.6198 25.9583 22.9091Z" fill="white" fill-opacity="0.7"/>
</svg>
