<svg width="26" height="24" viewBox="0 0 26 24" fill="none" xmlns="http://www.w3.org/2000/svg">
<path id="Vector" d="M25.9583 1.09091V6.54545C25.9583 6.83478 25.8547 7.11226 25.6701 7.31684C25.4856 7.52143 25.2353 7.63636 24.9744 7.63636C24.7134 7.63636 24.4631 7.52143 24.2786 7.31684C24.0941 7.11226 23.9904 6.83478 23.9904 6.54545V2.18182H20.0545C19.7935 2.18182 19.5432 2.06688 19.3587 1.8623C19.1742 1.65771 19.0705 1.38024 19.0705 1.09091C19.0705 0.801582 19.1742 0.524105 19.3587 0.31952C19.5432 0.114935 19.7935 0 20.0545 0H24.9744C25.2353 0 25.4856 0.114935 25.6701 0.31952C25.8547 0.524105 25.9583 0.801582 25.9583 1.09091ZM6.27885 21.8182H2.34295V17.4545C2.34295 17.1652 2.23928 16.8877 2.05475 16.6832C1.87022 16.4786 1.61994 16.3636 1.35897 16.3636C1.09801 16.3636 0.84773 16.4786 0.663199 16.6832C0.478668 16.8877 0.375 17.1652 0.375 17.4545V22.9091C0.375 23.1984 0.478668 23.4759 0.663199 23.6805C0.84773 23.8851 1.09801 24 1.35897 24H6.27885C6.53981 24 6.79009 23.8851 6.97462 23.6805C7.15915 23.4759 7.26282 23.1984 7.26282 22.9091C7.26282 22.6198 7.15915 22.3423 6.97462 22.1377C6.79009 21.9331 6.53981 21.8182 6.27885 21.8182ZM24.9744 16.3636C24.7134 16.3636 24.4631 16.4786 24.2786 16.6832C24.0941 16.8877 23.9904 17.1652 23.9904 17.4545V21.8182H20.0545C19.7935 21.8182 19.5432 21.9331 19.3587 22.1377C19.1742 22.3423 19.0705 22.6198 19.0705 22.9091C19.0705 23.1984 19.1742 23.4759 19.3587 23.6805C19.5432 23.8851 19.7935 24 20.0545 24H24.9744C25.2353 24 25.4856 23.8851 25.6701 23.6805C25.8547 23.4759 25.9583 23.1984 25.9583 22.9091V17.4545C25.9583 17.1652 25.8547 16.8877 25.6701 16.6832C25.4856 16.4786 25.2353 16.3636 24.9744 16.3636ZM1.35897 7.63636C1.61994 7.63636 1.87022 7.52143 2.05475 7.31684C2.23928 7.11226 2.34295 6.83478 2.34295 6.54545V2.18182H6.27885C6.53981 2.18182 6.79009 2.06688 6.97462 1.8623C7.15915 1.65771 7.26282 1.38024 7.26282 1.09091C7.26282 0.801582 7.15915 0.524105 6.97462 0.31952C6.79009 0.114935 6.53981 0 6.27885 0H1.35897C1.09801 0 0.84773 0.114935 0.663199 0.31952C0.478668 0.524105 0.375 0.801582 0.375 1.09091V6.54545C0.375 6.83478 0.478668 7.11226 0.663199 7.31684C0.84773 7.52143 1.09801 7.63636 1.35897 7.63636ZM7.26282 5.45455C7.00185 5.45455 6.75158 5.56948 6.56705 5.77407C6.38251 5.97865 6.27885 6.25613 6.27885 6.54545V17.4545C6.27885 17.7439 6.38251 18.0214 6.56705 18.2259C6.75158 18.4305 7.00185 18.5455 7.26282 18.5455C7.52379 18.5455 7.77406 18.4305 7.9586 18.2259C8.14313 18.0214 8.2468 17.7439 8.2468 17.4545V6.54545C8.2468 6.25613 8.14313 5.97865 7.9586 5.77407C7.77406 5.56948 7.52379 5.45455 7.26282 5.45455ZM20.0545 17.4545V6.54545C20.0545 6.25613 19.9508 5.97865 19.7663 5.77407C19.5818 5.56948 19.3315 5.45455 19.0705 5.45455C18.8095 5.45455 18.5593 5.56948 18.3747 5.77407C18.1902 5.97865 18.0865 6.25613 18.0865 6.54545V17.4545C18.0865 17.7439 18.1902 18.0214 18.3747 18.2259C18.5593 18.4305 18.8095 18.5455 19.0705 18.5455C19.3315 18.5455 19.5818 18.4305 19.7663 18.2259C19.9508 18.0214 20.0545 17.7439 20.0545 17.4545ZM15.1346 5.45455C14.8736 5.45455 14.6234 5.56948 14.4388 5.77407C14.2543 5.97865 14.1506 6.25613 14.1506 6.54545V17.4545C14.1506 17.7439 14.2543 18.0214 14.4388 18.2259C14.6234 18.4305 14.8736 18.5455 15.1346 18.5455C15.3956 18.5455 15.6459 18.4305 15.8304 18.2259C16.0149 18.0214 16.1186 17.7439 16.1186 17.4545V6.54545C16.1186 6.25613 16.0149 5.97865 15.8304 5.77407C15.6459 5.56948 15.3956 5.45455 15.1346 5.45455ZM11.1987 5.45455C10.9378 5.45455 10.6875 5.56948 10.5029 5.77407C10.3184 5.97865 10.2147 6.25613 10.2147 6.54545V17.4545C10.2147 17.7439 10.3184 18.0214 10.5029 18.2259C10.6875 18.4305 10.9378 18.5455 11.1987 18.5455C11.4597 18.5455 11.71 18.4305 11.8945 18.2259C12.079 18.0214 12.1827 17.7439 12.1827 17.4545V6.54545C12.1827 6.25613 12.079 5.97865 11.8945 5.77407C11.71 5.56948 11.4597 5.45455 11.1987 5.45455Z" fill="white" fill-opacity="0.7"/>
</svg>
