<svg width="24" height="24" viewBox="0 0 24 24" fill="none" xmlns="http://www.w3.org/2000/svg">
<g id="Layer 1">
<path id="Vector" d="M23.6453 22.3498C21.8353 20.5398 20.0253 18.7298 18.2153 16.9198C18.1353 16.8398 18.0653 16.7598 17.9953 16.6798C21.8153 12.0098 20.6853 5.5998 16.6353 2.3098C12.5453 -1.0102 6.66531 -0.7202 2.96531 2.9798C-0.72469 6.6798 -1.00469 12.5398 2.31531 16.6198C5.60531 20.6598 12.0153 21.7998 16.7353 17.9398C16.8153 18.0398 16.8753 18.1398 16.9553 18.2198C18.7353 20.0098 20.5253 21.7898 22.3053 23.5698C22.3853 23.6398 22.4553 23.7198 22.5353 23.7898C22.8353 24.0298 23.1753 24.0498 23.5153 23.8998C23.8453 23.7398 24.0053 23.4598 24.0053 23.0798C24.0053 22.7798 23.8553 22.5498 23.6553 22.3498H23.6453ZM10.1853 18.5098C5.54531 18.5098 1.84531 14.7698 1.84531 10.1198C1.84531 5.5598 5.59531 1.8498 10.1753 1.8498C14.7853 1.8498 18.5153 5.5698 18.5053 10.1798C18.5053 14.7898 14.7753 18.5198 10.1753 18.5098H10.1853Z" fill="#616161"/>
</g>
</svg>
