<svg width="26" height="24" viewBox="0 0 26 24" fill="none" xmlns="http://www.w3.org/2000/svg">
<path id="Vector" d="M20.0234 12.5213L14.3322 10.5561L12.237 5.21391C12.113 4.89776 11.8885 4.62491 11.5939 4.43217C11.2993 4.23944 10.9487 4.1361 10.5896 4.1361C10.2304 4.1361 9.87984 4.23944 9.58524 4.43217C9.29064 4.62491 9.06616 4.89776 8.94208 5.21391L6.8447 10.5499L1.14911 12.515C0.812042 12.6314 0.52114 12.842 0.315657 13.1183C0.110174 13.3946 0 13.7234 0 14.0603C0 14.3972 0.110174 14.726 0.315657 15.0023C0.52114 15.2786 0.812042 15.4892 1.14911 15.6055L6.83698 17.5831L8.93216 22.9222C9.05623 23.2383 9.28071 23.5112 9.57531 23.7039C9.86991 23.8967 10.2205 24 10.5796 24C10.9388 24 11.2894 23.8967 11.584 23.7039C11.8786 23.5112 12.103 23.2383 12.2271 22.9222L14.3223 17.5842L20.0179 15.619C20.3549 15.5026 20.6458 15.2921 20.8513 15.0157C21.0568 14.7394 21.167 14.4106 21.167 14.0737C21.167 13.7368 21.0568 13.4081 20.8513 13.1317C20.6458 12.8554 20.3549 12.6449 20.0179 12.5285L20.0234 12.5213ZM13.7169 16.0317C13.4785 16.1137 13.262 16.2435 13.0824 16.4119C12.9029 16.5803 12.7645 16.7834 12.677 17.007L10.5818 22.3295L8.49107 17.0029C8.4035 16.7805 8.2656 16.5785 8.08685 16.4108C7.9081 16.2432 7.69275 16.1138 7.45561 16.0317L1.78098 14.0665L7.45561 12.1013C7.69275 12.0192 7.9081 11.8898 8.08685 11.7222C8.2656 11.5545 8.4035 11.3525 8.49107 11.1301L10.5862 5.8076L12.6814 11.1301C12.7689 11.3537 12.9073 11.5568 13.0868 11.7252C13.2664 11.8936 13.4829 12.0234 13.7213 12.1055L19.3959 14.0706L13.7169 16.0317ZM14.115 3.30976C14.115 3.09031 14.2079 2.87985 14.3734 2.72468C14.5388 2.5695 14.7632 2.48232 14.9972 2.48232H16.7615V0.827441C16.7615 0.60799 16.8545 0.397527 17.0199 0.242352C17.1853 0.0871766 17.4097 0 17.6437 0C17.8777 0 18.1021 0.0871766 18.2675 0.242352C18.4329 0.397527 18.5259 0.60799 18.5259 0.827441V2.48232H20.2902C20.5242 2.48232 20.7486 2.5695 20.914 2.72468C21.0795 2.87985 21.1724 3.09031 21.1724 3.30976C21.1724 3.52922 21.0795 3.73968 20.914 3.89485C20.7486 4.05003 20.5242 4.13721 20.2902 4.13721H18.5259V5.79209C18.5259 6.01154 18.4329 6.222 18.2675 6.37718C18.1021 6.53235 17.8777 6.61953 17.6437 6.61953C17.4097 6.61953 17.1853 6.53235 17.0199 6.37718C16.8545 6.222 16.7615 6.01154 16.7615 5.79209V4.13721H14.9972C14.7632 4.13721 14.5388 4.05003 14.3734 3.89485C14.2079 3.73968 14.115 3.52922 14.115 3.30976ZM25.5833 8.27441C25.5833 8.49386 25.4904 8.70433 25.3249 8.8595C25.1595 9.01468 24.9351 9.10185 24.7012 9.10185H23.819V9.92929C23.819 10.1487 23.726 10.3592 23.5606 10.5144C23.3951 10.6696 23.1708 10.7567 22.9368 10.7567C22.7028 10.7567 22.4784 10.6696 22.313 10.5144C22.1476 10.3592 22.0546 10.1487 22.0546 9.92929V9.10185H21.1724C20.9385 9.10185 20.7141 9.01468 20.5486 8.8595C20.3832 8.70433 20.2902 8.49386 20.2902 8.27441C20.2902 8.05496 20.3832 7.8445 20.5486 7.68932C20.7141 7.53415 20.9385 7.44697 21.1724 7.44697H22.0546V6.61953C22.0546 6.40008 22.1476 6.18962 22.313 6.03444C22.4784 5.87927 22.7028 5.79209 22.9368 5.79209C23.1708 5.79209 23.3951 5.87927 23.5606 6.03444C23.726 6.18962 23.819 6.40008 23.819 6.61953V7.44697H24.7012C24.9351 7.44697 25.1595 7.53415 25.3249 7.68932C25.4904 7.8445 25.5833 8.05496 25.5833 8.27441Z" fill="white"/>
</svg>
