<svg width="21" height="20" viewBox="0 0 21 20" fill="none" xmlns="http://www.w3.org/2000/svg">
<path id="Vector" d="M18.909 2.22218H11.0864V0.740727C11.0864 0.544274 11.004 0.355867 10.8573 0.216954C10.7106 0.0780407 10.5116 0 10.3041 0C10.0967 0 9.89771 0.0780407 9.75101 0.216954C9.6043 0.355867 9.52189 0.544274 9.52189 0.740727V2.22218H1.69929C1.28435 2.22218 0.886407 2.37826 0.593003 2.65609C0.299598 2.93392 0.134766 3.31073 0.134766 3.70364V14.8145C0.134766 15.2075 0.299598 15.5843 0.593003 15.8621C0.886407 16.1399 1.28435 16.296 1.69929 16.296H5.54801L3.43493 18.796C3.30526 18.9494 3.24529 19.1454 3.26821 19.3407C3.29113 19.5361 3.39507 19.7148 3.55715 19.8376C3.71924 19.9604 3.92619 20.0172 4.13249 19.9955C4.33879 19.9738 4.52754 19.8753 4.65721 19.7219L7.55059 16.296H13.0577L15.9511 19.7219C16.0153 19.7979 16.0947 19.8611 16.1847 19.9081C16.2747 19.955 16.3736 19.9847 16.4758 19.9955C16.5779 20.0062 16.6813 19.9978 16.7801 19.9707C16.8788 19.9436 16.9709 19.8984 17.0511 19.8376C17.1314 19.7768 17.1982 19.7016 17.2478 19.6164C17.2974 19.5311 17.3287 19.4375 17.3401 19.3407C17.3514 19.244 17.3426 19.1461 17.3139 19.0527C17.2853 18.9592 17.2376 18.8719 17.1734 18.796L15.0603 16.296H18.909C19.3239 16.296 19.7219 16.1399 20.0153 15.8621C20.3087 15.5843 20.4735 15.2075 20.4735 14.8145V3.70364C20.4735 3.31073 20.3087 2.93392 20.0153 2.65609C19.7219 2.37826 19.3239 2.22218 18.909 2.22218ZM18.909 14.8145H1.69929V3.70364H18.909V14.8145ZM7.95737 9.62945V11.8516C7.95737 12.0481 7.87495 12.2365 7.72825 12.3754C7.58155 12.5143 7.38257 12.5924 7.17511 12.5924C6.96764 12.5924 6.76867 12.5143 6.62196 12.3754C6.47526 12.2365 6.39285 12.0481 6.39285 11.8516V9.62945C6.39285 9.433 6.47526 9.24459 6.62196 9.10568C6.76867 8.96677 6.96764 8.88873 7.17511 8.88873C7.38257 8.88873 7.58155 8.96677 7.72825 9.10568C7.87495 9.24459 7.95737 9.433 7.95737 9.62945ZM11.0864 8.148V11.8516C11.0864 12.0481 11.004 12.2365 10.8573 12.3754C10.7106 12.5143 10.5116 12.5924 10.3041 12.5924C10.0967 12.5924 9.89771 12.5143 9.75101 12.3754C9.6043 12.2365 9.52189 12.0481 9.52189 11.8516V8.148C9.52189 7.95155 9.6043 7.76314 9.75101 7.62423C9.89771 7.48531 10.0967 7.40727 10.3041 7.40727C10.5116 7.40727 10.7106 7.48531 10.8573 7.62423C11.004 7.76314 11.0864 7.95155 11.0864 8.148ZM14.2154 6.66655V11.8516C14.2154 12.0481 14.133 12.2365 13.9863 12.3754C13.8396 12.5143 13.6407 12.5924 13.4332 12.5924C13.2257 12.5924 13.0267 12.5143 12.88 12.3754C12.7333 12.2365 12.6509 12.0481 12.6509 11.8516V6.66655C12.6509 6.47009 12.7333 6.28169 12.88 6.14277C13.0267 6.00386 13.2257 5.92582 13.4332 5.92582C13.6407 5.92582 13.8396 6.00386 13.9863 6.14277C14.133 6.28169 14.2154 6.47009 14.2154 6.66655Z" fill="white" fill-opacity="0.7"/>
</svg>
