<svg width="24" height="24" viewBox="0 0 24 24" fill="none" xmlns="http://www.w3.org/2000/svg">
<g id="Group 1000004187">
<path id="Vector" d="M15.3488 24H8.65116C2.58977 24 0 21.4102 0 15.3488V8.65116C0 2.58977 2.58977 0 8.65116 0H15.3488C21.4102 0 24 2.58977 24 8.65116V15.3488C24 21.4102 21.4102 24 15.3488 24ZM8.65116 1.67442C3.50512 1.67442 1.67442 3.50512 1.67442 8.65116V15.3488C1.67442 20.4949 3.50512 22.3256 8.65116 22.3256H15.3488C20.4949 22.3256 22.3256 20.4949 22.3256 15.3488V8.65116C22.3256 3.50512 20.4949 1.67442 15.3488 1.67442H8.65116Z" fill="white" fill-opacity="0.7"/>
<path id="Vector_2" d="M6.42303 15.0608C6.24442 15.0608 6.06582 15.005 5.90954 14.8822C5.54117 14.6031 5.47419 14.0785 5.75326 13.7101L8.41001 10.2608C8.73373 9.84777 9.1914 9.57986 9.71604 9.51289C10.2295 9.44591 10.7542 9.59103 11.1672 9.91475L13.21 11.5222C13.2881 11.5892 13.3663 11.5892 13.4221 11.578C13.4667 11.578 13.5449 11.5557 13.6119 11.4664L16.1905 8.13987C16.4695 7.7715 17.0053 7.70453 17.3626 7.99476C17.7309 8.27383 17.7979 8.79848 17.5077 9.16685L14.9291 12.4934C14.6053 12.9064 14.1477 13.1743 13.623 13.2301C13.0984 13.2971 12.5849 13.152 12.1719 12.8282L10.1291 11.2208C10.0509 11.1538 9.96162 11.1538 9.91697 11.165C9.87232 11.165 9.79418 11.1873 9.7272 11.2766L7.07047 14.7259C6.92535 14.9492 6.67977 15.0608 6.42303 15.0608Z" fill="white" fill-opacity="0.7"/>
</g>
</svg>
