<svg width="28" height="20" viewBox="0 0 28 20" fill="none" xmlns="http://www.w3.org/2000/svg">
<path id="Vector" d="M27.3219 11.6167C27.2258 11.6882 27.1164 11.7402 27 11.7698C26.8835 11.7994 26.7624 11.806 26.6434 11.7891C26.5244 11.7722 26.41 11.7323 26.3066 11.6716C26.2032 11.6109 26.1128 11.5305 26.0407 11.4352C25.4891 10.6998 24.7712 10.1032 23.9446 9.69333C23.1181 9.28345 22.2061 9.07177 21.282 9.07533C21.102 9.07531 20.9261 9.02267 20.7761 8.92399C20.6262 8.82532 20.5089 8.68498 20.4389 8.52054C20.3914 8.40887 20.3669 8.2889 20.3669 8.1677C20.3669 8.0465 20.3914 7.92652 20.4389 7.81485C20.5089 7.65041 20.6262 7.51008 20.7761 7.4114C20.9261 7.31272 21.102 7.26008 21.282 7.26007C21.7955 7.26002 22.2986 7.11716 22.7344 6.84771C23.1701 6.57826 23.5209 6.19302 23.7469 5.73575C23.9729 5.27848 24.0651 4.7675 24.013 4.26087C23.9609 3.75424 23.7666 3.27225 23.4521 2.86966C23.1377 2.46706 22.7157 2.16 22.2341 1.98335C21.7525 1.80669 21.2306 1.76753 20.7277 1.87031C20.2248 1.97309 19.761 2.21368 19.3891 2.56477C19.0171 2.91585 18.7519 3.36336 18.6235 3.85645C18.5935 3.97192 18.5408 4.08038 18.4685 4.17566C18.3962 4.27093 18.3056 4.35115 18.2021 4.41173C18.0985 4.4723 17.9839 4.51206 17.8649 4.52871C17.7458 4.54537 17.6246 4.53861 17.5082 4.50881C17.3918 4.47901 17.2824 4.42676 17.1863 4.35505C17.0903 4.28333 17.0094 4.19355 16.9483 4.09083C16.8872 3.98811 16.8471 3.87447 16.8304 3.75639C16.8136 3.63831 16.8204 3.5181 16.8504 3.40264C17.0286 2.71886 17.3652 2.08577 17.8335 1.55374C18.3018 1.0217 18.8888 0.6054 19.5479 0.337964C20.2069 0.0705282 20.9198 -0.0406632 21.6298 0.013237C22.3398 0.0671373 23.0273 0.284642 23.6376 0.648444C24.248 1.01225 24.7643 1.5123 25.1455 2.10883C25.5266 2.70535 25.7622 3.38188 25.8334 4.08458C25.9045 4.78728 25.8094 5.49676 25.5554 6.15656C25.3015 6.81636 24.8958 7.40827 24.3706 7.8852C25.615 8.41956 26.6967 9.26753 27.5084 10.3449C27.5805 10.4405 27.6329 10.5492 27.6625 10.6649C27.6922 10.7806 27.6985 10.901 27.6812 11.0192C27.6639 11.1373 27.6232 11.2509 27.5616 11.3534C27.4999 11.456 27.4185 11.5454 27.3219 11.6167ZM21.1584 18.6054C21.2247 18.7088 21.2691 18.8243 21.2892 18.9451C21.3092 19.0658 21.3044 19.1894 21.275 19.3083C21.2456 19.4272 21.1923 19.539 21.1183 19.6369C21.0442 19.7348 20.951 19.8169 20.8441 19.8782C20.7373 19.9394 20.619 19.9786 20.4965 19.9934C20.374 20.0081 20.2497 19.9982 20.1312 19.9641C20.0126 19.93 19.9023 19.8724 19.8067 19.7949C19.7112 19.7174 19.6325 19.6215 19.5753 19.5131C18.9988 18.5449 18.1777 17.7426 17.1932 17.1852C16.2086 16.6279 15.0945 16.3347 13.9609 16.3347C12.8272 16.3347 11.7131 16.6279 10.7286 17.1852C9.74399 17.7426 8.92296 18.5449 8.34647 19.5131C8.28926 19.6215 8.21052 19.7174 8.11498 19.7949C8.01945 19.8724 7.90909 19.93 7.79056 19.9641C7.67202 19.9982 7.54775 20.0081 7.42523 19.9934C7.30271 19.9786 7.18446 19.9394 7.0776 19.8782C6.97075 19.8169 6.87749 19.7348 6.80344 19.6369C6.72939 19.539 6.67608 19.4272 6.64672 19.3083C6.61735 19.1894 6.61254 19.0658 6.63257 18.9451C6.6526 18.8243 6.69706 18.7088 6.76328 18.6054C7.6505 17.0935 9.00331 15.9037 10.6229 15.2109C9.71155 14.5189 9.04178 13.561 8.70772 12.4719C8.37367 11.3829 8.39211 10.2173 8.76048 9.13921C9.12884 8.06107 9.82859 7.12452 10.7614 6.46121C11.6942 5.7979 12.8131 5.44117 13.9609 5.44117C15.1086 5.44117 16.2276 5.7979 17.1603 6.46121C18.0931 7.12452 18.7929 8.06107 19.1612 9.13921C19.5296 10.2173 19.5481 11.3829 19.214 12.4719C18.8799 13.561 18.2102 14.5189 17.2988 15.2109C18.9184 15.9037 20.2712 17.0935 21.1584 18.6054ZM13.9609 14.5211C14.6849 14.5211 15.3926 14.3082 15.9946 13.9093C16.5965 13.5103 17.0657 12.9433 17.3428 12.2799C17.6198 11.6165 17.6923 10.8866 17.5511 10.1823C17.4098 9.47806 17.0612 8.83116 16.5493 8.32342C16.0373 7.81568 15.3851 7.46991 14.675 7.32982C13.9649 7.18974 13.2289 7.26164 12.56 7.53642C11.8911 7.81121 11.3194 8.27654 10.9172 8.87358C10.515 9.47061 10.3003 10.1725 10.3003 10.8906C10.3003 11.8535 10.686 12.7769 11.3725 13.4578C12.0589 14.1386 12.99 14.5211 13.9609 14.5211ZM7.55487 8.1677C7.55487 7.92698 7.45846 7.69612 7.28684 7.5259C7.11521 7.35569 6.88244 7.26007 6.63973 7.26007C6.12626 7.26002 5.62308 7.11716 5.18737 6.84771C4.75165 6.57826 4.40086 6.19302 4.17484 5.73575C3.94881 5.27848 3.85662 4.7675 3.90872 4.26087C3.96083 3.75424 4.15514 3.27225 4.4696 2.86966C4.78406 2.46706 5.20605 2.16 5.68764 1.98335C6.16924 1.80669 6.69113 1.76753 7.19404 1.87031C7.69695 1.97309 8.16072 2.21368 8.53267 2.56477C8.90463 2.91585 9.16985 3.36336 9.29822 3.85645C9.3589 4.08965 9.51049 4.28939 9.71966 4.41173C9.92882 4.53407 10.1784 4.56899 10.4135 4.50881C10.6487 4.44863 10.8501 4.29828 10.9734 4.09083C11.0968 3.88338 11.132 3.63583 11.0713 3.40264C10.8931 2.71886 10.5565 2.08577 10.0882 1.55374C9.61994 1.0217 9.03292 0.6054 8.37387 0.337964C7.71482 0.0705282 7.00193 -0.0406632 6.29193 0.013237C5.58193 0.0671373 4.89441 0.284642 4.28408 0.648444C3.67374 1.01225 3.15744 1.5123 2.77626 2.10883C2.39508 2.70535 2.15953 3.38188 2.08836 4.08458C2.01719 4.78728 2.11236 5.49676 2.3663 6.15656C2.62025 6.81636 3.02595 7.40827 3.55113 7.8852C2.30801 8.42006 1.22749 9.268 0.416774 10.3449C0.270996 10.5374 0.208321 10.7796 0.242539 11.018C0.276756 11.2564 0.405062 11.4715 0.59923 11.6161C0.793398 11.7607 1.03752 11.8229 1.2779 11.7889C1.51828 11.755 1.73522 11.6277 1.881 11.4352C2.43259 10.6998 3.15054 10.1032 3.97708 9.69333C4.80362 9.28345 5.71564 9.07177 6.63973 9.07533C6.88244 9.07533 7.11521 8.9797 7.28684 8.80949C7.45846 8.63927 7.55487 8.40841 7.55487 8.1677Z" fill="#12D4FF"/>
</svg>
